<svg xmlns="http://www.w3.org/2000/svg" xml:space="preserve" fill-rule="evenodd" stroke-linejoin="round" stroke-miterlimit="2" clip-rule="evenodd" viewBox="0 0 1388 417">
  <path fill="#000" fill-rule="nonzero" d="M97.25 163.784c1.454.581 2.035 2.325 2.035 3.196 0 7.846.872 15.982 1.162 18.888.581 4.068-.581 5.812-1.453 5.812-1.163 0-2.034-1.163-2.615-4.359-1.744-7.555-4.94-13.658-10.46-17.144-6.684-4.94-16.274-6.975-23.829-6.975-13.367 0-34.289 12.785-34.289 37.486 0 17.434 11.914 28.186 21.794 34.87 11.914 7.846 21.212 14.82 30.221 21.503 10.46 7.555 26.152 20.632 26.152 44.459 0 31.674-29.93 51.142-59.279 51.142-11.623 0-29.349-3.194-38.357-8.135-3.778-2.034-4.65-3.778-5.522-8.717-.58-4.941-2.324-12.495-2.614-19.761-.29-2.324 0-4.94 1.453-4.94 1.161 0 2.033 1.453 3.196 5.522 5.231 22.083 23.828 31.092 42.426 31.092 24.117 0 39.519-20.342 39.519-39.52 0-21.503-14.82-31.964-36.324-46.493-19.76-13.368-38.647-29.35-38.647-53.758 0-16.853 6.683-28.477 18.307-37.484 7.554-6.103 20.631-11.625 36.613-11.625 12.205 0 26.154 3.778 30.511 4.941Zm292.912 92.406c1.453 4.649 2.615 16.562 2.615 25.571 0 9.299-1.162 38.357-1.162 45.912 0 6.102 2.615 11.623 11.333 11.623 2.615 0 5.521-.872 8.718-2.615 1.743-.871 2.905-.581 1.743 2.324-3.197 6.974-11.623 11.624-20.341 11.624-6.974 0-13.658-5.812-16.272-13.076-.292-.581-1.163-.581-1.453-.291-8.718 7.555-17.145 13.076-28.769 13.076-11.914 0-22.955-9.879-22.955-24.408 0-9.299 8.136-14.821 10.46-15.983 6.683-3.777 33.999-12.496 39.228-14.238 2.617-.873 4.069-3.778 4.069-4.359.291-3.488.581-8.428.581-13.367 0-11.914-2.033-21.212-7.264-24.991-4.068-2.905-9.008-4.649-12.495-4.649-4.65 0-7.265.873-12.205 4.068-2.324 2.035-4.358 4.069-5.231 7.846-.29 1.163-.29 2.617-.29 4.359 0 .872-.581 1.744-1.162 2.324-2.615 1.744-10.751 5.231-11.914 5.231-1.163 0-2.325-1.453-2.325-2.616 0-1.451 1.162-3.195 4.359-7.264 7.265-8.716 18.597-15.4 22.085-17.145 6.973-3.487 11.623-4.938 16.563-4.938 9.008 0 18.597 5.519 22.084 15.982Zm417.858 0c1.454 4.649 2.616 16.562 2.616 25.571 0 9.299-1.162 38.357-1.162 45.912 0 6.102 2.615 11.623 11.332 11.623 2.616 0 5.521-.872 8.717-2.615 1.744-.871 2.905-.581 1.744 2.324-3.197 6.974-11.623 11.624-20.341 11.624-6.974 0-13.658-5.812-16.274-13.076-.29-.581-1.161-.581-1.451-.291-8.718 7.555-17.145 13.076-28.769 13.076-11.914 0-22.956-9.879-22.956-24.408 0-9.299 8.137-14.821 10.462-15.983 6.683-3.777 33.997-12.496 39.228-14.238 2.615-.873 4.068-3.778 4.068-4.359.291-3.488.582-8.428.582-13.367 0-11.914-2.035-21.212-7.265-24.991-4.068-2.905-9.008-4.649-12.495-4.649-4.649 0-7.265.873-12.205 4.068-2.324 2.035-4.359 4.069-5.23 7.846-.29 1.163-.29 2.617-.29 4.359 0 .872-.582 1.744-1.163 2.324-2.615 1.744-10.751 5.231-11.914 5.231-1.163 0-2.325-1.453-2.325-2.616 0-1.451 1.162-3.195 4.359-7.264 7.265-8.716 18.598-15.4 22.084-17.145 6.974-3.487 11.623-4.938 16.563-4.938 9.008 0 18.598 5.519 22.085 15.982Zm246.128 13.075c0 1.163-1.453 2.617-2.615 2.617-2.035 0-40.683-.873-46.785-.873h-17.725c-.582 0-2.326 1.744-2.906 2.615-1.743 3.487-2.615 7.846-2.615 17.436 0 14.819 6.102 27.023 13.656 35.451 8.138 9.298 20.051 12.494 30.512 12.494 12.495 0 21.213-3.196 27.897-9.589 2.615-2.325 3.486-1.743 3.486-.582 0 .872-1.161 2.907-3.196 4.941-12.496 12.496-23.537 16.854-39.519 16.854-13.077 0-24.99-5.521-33.708-14.82-8.719-9.298-13.948-22.665-13.948-38.939 0-12.203 3.777-29.057 15.692-41.553 7.845-7.845 21.793-15.11 36.612-15.11 15.401 0 35.162 10.752 35.162 29.058Zm28.768 67.416c-2.325-3.777-3.487-9.008-3.487-15.983v-60.442c0-3.775-.29-5.811-1.162-6.101-1.454-.581-5.231-1.454-8.138-2.034-2.034-.291-3.486-1.453-3.486-2.324 0-.582-.29-.872 2.906-2.326 7.554-2.615 15.983-10.169 22.374-18.887 1.744-2.615 4.068-2.034 4.068-.873-.29 2.907-.871 9.591-.581 13.657 0 .873.291 2.326 1.454 2.326 5.23 0 31.092-.871 37.776-.871.581 0 1.743 1.743 1.743 3.485 0 4.07-1.453 7.266-2.906 7.266-10.752 0-27.023-.29-34.87-.29-3.777 0-4.068.871-4.068 2.615 0 4.357.291 49.69.871 59.279.581 10.169 1.162 13.657 3.197 16.562 4.068 5.813 10.461 8.428 19.47 8.428 9.299 0 14.819-3.196 17.144-4.649 1.743-1.454 2.615-1.164 2.615 0 0 1.744-3.196 4.939-6.684 7.555-6.101 4.358-14.239 6.974-22.375 6.974-12.205 0-20.921-4.069-25.861-13.367ZM553.465 162.912c4.358 0 12.786-.291 20.631-.582 6.684-.291 23.247-2.034 28.188-2.034 23.246 0 40.97 6.393 52.013 18.598 10.172 10.461 15.111 25.281 15.111 38.067 0 27.605-13.948 40.391-24.409 47.365-10.17 7.264-22.957 8.716-30.221 8.716-4.068 0-7.555-.58-9.299-1.161-1.744-.582-3.486-1.453-3.486-2.616 0-.58.871-1.453 3.196-1.162 2.615.291 3.488.291 6.393.291 9.589 0 39.229-7.555 39.229-49.689 0-8.718-2.325-26.445-14.531-38.648-9.298-9.88-19.468-15.692-34.579-15.692-5.52 0-12.494 1.162-14.819 2.034-1.161.581-2.616 2.906-2.616 5.521 0 5.231.291 66.253.291 97.345 0 31.383.581 51.142 1.164 59.28.871 11.333 4.358 14.239 13.365 15.692 4.359.58 5.813 1.451 5.813 2.615 0 1.452-2.035 2.034-4.65 2.034-8.718 0-14.238-1.454-27.895-1.454-7.265 0-14.531 1.163-17.727 1.163-2.615 0-5.231-.291-5.231-1.743 0-.873.872-1.744 4.941-2.615 8.717-1.744 11.914-3.779 12.495-13.368.291-6.683.581-40.099.581-85.722 0-23.827-1.453-62.475-2.033-68.287-.291-5.521-3.779-8.718-11.915-9.59-1.743-.29-4.649-.871-4.649-2.324 0-.872 2.033-2.034 4.649-2.034Zm376.021 87.465c6.392 6.974 8.427 22.085 8.717 38.648 0 14.529.29 16.854.29 30.512.293 20.341.873 22.084 8.718 24.118 3.197 1.163 4.94 1.743 4.94 2.907 0 2.032-2.615 2.032-5.52 2.032-2.615 0-10.753-1.161-17.436-1.161-6.974 0-10.17 1.161-15.401 1.161-2.324 0-4.649-.581-4.649-1.742 0-1.163 1.745-2.325 6.393-3.197 6.392-1.453 7.555-3.777 7.555-12.785v-38.068c0-24.118-2.324-31.382-9.589-37.195-4.359-3.486-10.171-6.101-17.726-6.101-8.427 0-16.563 3.196-25.862 11.043-2.325 2.324-3.487 7.554-3.487 9.879 0 2.615 0 18.016.291 36.322.291 19.18 1.162 23.829 1.743 28.187.872 6.684 4.94 7.846 9.589 9.009 3.487.872 4.941 1.452 4.941 2.906 0 1.742-2.906 1.742-5.812 1.742-2.325 0-15.402-1.161-22.084-1.161-3.778 0-9.591.58-13.657.58-3.198 0-5.232-.58-5.232-2.034 0-1.161 2.324-2.033 6.393-2.905 6.974-1.453 8.137-3.196 8.428-8.718.58-22.664.58-49.689.58-72.065 0-2.906-.58-6.684-7.845-10.17-1.453-.871-2.324-1.453-2.324-2.615 0-.581 1.161-1.163 4.066-2.325 4.65-1.453 14.531-5.522 19.471-8.718.871-.58 2.324.581 2.034 2.325-.291 3.487-.873 11.333-.582 15.692 0 .581.582 1.453 1.453.871 7.845-5.811 15.401-11.043 21.793-13.658 6.684-3.195 12.786-3.486 17.437-3.486 12.203 0 19.177 6.394 22.374 10.17Zm-798.527-1.452c5.231-1.163 13.076-4.649 16.855-7.847 1.452-1.161 2.905-1.742 4.067-1.742.872 0 1.453 1.161 1.453 2.905 0 3.196-.291 11.043 0 14.24 0 .871.291 2.614 1.744 1.743 9.299-8.718 24.408-17.727 36.032-17.727 13.657 0 22.956 6.103 29.64 19.178.29.581 1.743.873 2.034.581 12.204-11.914 25.571-20.049 40.391-20.049 16.273 0 25.862 9.88 29.64 21.212 2.034 5.813 3.196 16.854 3.486 27.607.291 9.589.872 31.381 1.162 41.553.291 9.299 1.454 11.623 8.428 12.786 4.358.872 5.52 1.743 5.52 2.614 0 1.453-1.452 2.034-4.939 2.034-3.197 0-12.495-.581-19.178-.581-6.974 0-11.915.872-16.273.872-3.778 0-5.813-.581-5.813-1.743 0-1.453 2.616-2.324 5.231-2.906 9.299-1.743 10.462-4.36 10.752-13.076.581-34.87-1.162-48.237-2.324-57.536-2.326-14.819-10.171-22.956-25.572-22.956-12.204 0-22.085 6.684-27.606 12.204-1.162 1.164-2.325 4.649-2.325 11.042.292 6.683 1.454 50.562 2.035 58.407.872 8.138 1.744 10.172 9.299 11.915 3.486 1.162 4.649 1.453 4.649 2.616 0 1.161-1.453 1.742-4.94 1.742-3.197 0-13.948-.581-20.341-.581-6.392 0-12.785.581-15.982.581-2.906 0-4.358-.581-4.358-1.742 0-.873 1.452-2.034 5.52-2.906 6.102-1.163 9.009-2.326 9.009-9.3l.29-47.075c0-16.271-1.743-23.245-7.555-29.638-4.65-4.651-9.299-6.974-18.888-6.974-11.333 0-19.179 5.812-24.119 9.878-3.195 2.908-3.777 5.813-4.067 8.428-.291 2.906-1.163 9.88-1.163 18.597 0 16.854 1.163 40.973 1.744 45.913.581 4.94 2.615 9.299 9.88 10.461 3.196.582 4.359 1.453 4.359 2.324 0 1.453-2.326 2.034-4.359 2.034-5.522 0-14.53-.581-21.504-.581-7.555 0-13.948.581-16.563.581-2.615 0-5.231-.871-5.231-2.034 0-1.162 1.744-2.034 5.812-2.614 9.88-2.035 9.299-5.812 9.88-8.428 1.162-6.683 1.162-25.57 1.162-44.75 0-12.494.29-19.468-.29-25.281-.291-5.811-2.325-8.425-6.974-11.041-2.034-1.164-2.906-1.744-2.906-2.907 0-.871.872-1.161 3.196-2.033Zm319.645 27.896c0 36.032.581 50.561.872 56.373.291 7.265 1.744 9.589 10.171 10.752 1.743.291 4.068 1.162 4.068 2.033 0 1.163-1.744 2.034-6.102 2.034-2.907 0-12.786-.581-18.017-.581-7.555 0-15.4.581-18.307.581-3.777 0-4.94-.29-4.94-1.742 0-1.163 1.163-1.454 5.521-2.616 7.264-1.453 9.009-4.36 10.171-17.144.871-10.171 1.743-57.537 2.034-95.022 0-26.733.291-42.489 0-56.437 0-6.102-.291-7.556-8.137-12.495-2.033-1.163-2.615-1.454-2.615-2.325 0-.871 1.454-1.743 4.069-2.325 6.974-1.743 12.204-3.488 18.597-6.102.871-.29 2.325-.872 3.196-.872.582 0 .873 1.744.873 3.486 0 2.036-1.454 47.431-1.454 88.113v34.289Zm261.234 0c0 36.032.581 50.561.871 56.373.291 7.265 1.743 9.589 10.171 10.752 1.743.291 4.068 1.162 4.068 2.033 0 1.163-1.743 2.034-6.103 2.034-2.905 0-12.786-.581-18.016-.581-7.555 0-15.402.581-18.306.581-3.777 0-4.941-.29-4.941-1.742 0-1.163 1.164-1.454 5.523-2.616 7.264-1.453 9.006-4.36 10.169-17.144.871-10.171 1.744-57.537 2.034-95.022 0-26.733.291-42.489 0-56.437 0-6.102-.29-7.556-8.137-12.495-2.034-1.163-2.615-1.454-2.615-2.325 0-.871 1.454-1.743 4.069-2.325 6.974-1.743 12.204-3.488 18.597-6.102.871-.29 2.326-.872 3.197-.872.581 0 .872 1.744.872 3.486 0 2.036-1.453 47.431-1.453 88.113v34.289Zm-202.247 0c0 36.032.581 50.561.872 56.373.29 7.265 1.743 9.589 10.171 10.752 1.743.291 4.067 1.162 4.067 2.033 0 1.163-1.743 2.034-6.102 2.034-2.906 0-12.785-.581-18.016-.581-7.555 0-15.401.581-18.307.581-3.777 0-4.94-.29-4.94-1.742 0-1.163 1.163-1.454 5.522-2.616 7.264-1.453 9.008-4.36 10.17-17.144.871-10.171 1.742-57.537 2.033-95.022 0-26.733.291-42.489 0-56.437 0-6.102-.291-7.556-8.136-12.495-2.033-1.163-2.615-1.454-2.615-2.325 0-.871 1.453-1.743 4.068-2.325 6.974-1.743 12.205-3.488 18.598-6.102.871-.29 2.325-.872 3.196-.872.581 0 .872 1.744.872 3.486 0 2.036-1.453 47.431-1.453 88.113v34.289Zm-137.445 58.407c1.453-1.453 3.197-4.069 3.778-7.555.872-4.94 1.452-16.564 1.452-27.024 0-.291-.58-1.744-1.162-1.453-4.068.582-23.828 7.846-30.221 11.042-2.615 1.453-6.683 5.521-6.683 14.238 0 9.009 8.426 15.693 18.307 15.693 5.521 0 11.042-1.745 14.529-4.941Zm417.858 0c1.453-1.453 3.197-4.069 3.777-7.555.871-4.94 1.453-16.564 1.453-27.024 0-.291-.582-1.744-1.162-1.453-4.068.582-23.828 7.846-30.221 11.042-2.615 1.453-6.683 5.521-6.683 14.238 0 9.009 8.427 15.693 18.306 15.693 5.521 0 11.043-1.745 14.53-4.941Zm203.121-79.621c-3.487 3.778-5.812 8.719-5.812 10.462 0 .581.581 1.163.872 1.163l42.135-.292c5.811 0 6.392-2.614 6.392-5.23 0-2.615-.581-8.135-4.068-11.623-3.197-2.906-8.717-5.812-16.272-5.812-7.846 0-15.982 4.36-23.247 11.332Zm-656.468-76.706C353.154 90.318 436.086 3.744 549.8.122c122.931-3.914 211.516 86.864 228.889 178.671-6.14 2.348-8.848.379-10.735-6.138-24.716-85.403-80.344-139.36-166.99-158.931-110.569-24.973-224.88 46.831-253.421 157.428-2.309 8.948-2.309 8.948-10.886 7.749Z"/>
  <path fill="#c02125" fill-rule="nonzero" d="M1387.82 296.544c0 66.342-53.781 120.123-120.123 120.123-66.342 0-120.123-53.781-120.123-120.123 0-66.343 53.781-120.123 120.123-120.123 66.342 0 120.123 53.78 120.123 120.123"/>
  <path fill="#fff" fill-rule="nonzero" d="M1364.81 295.693c0 19.468-13.179 31.44-22.491 35.55-4.957 2.176-10.519 3.628-16.081 3.628-21.886 0-38.208-18.743-38.208-40.871 0-12.091 4.112-22.853 15.718-31.68 6.168-4.836 14.026-7.619 21.885-7.619 21.04 0 39.177 18.38 39.177 40.992Zm-91.652-35.187c5.2 3.749 7.497 8.948 7.497 14.511 0 7.858-4.111 11.486-6.892 13.541-1.814 1.694-5.08 3.024-6.892 3.748-.484.244-.362.969.122 2.178 2.296 4.595 9.188 15.84 13.057 21.524 3.748 5.32 6.288 8.463 8.828 11.003 3.628 3.749 6.771 4.594 9.069 4.714.845 0 1.573.364 1.573.728 0 .241-.485.725-1.331.966-1.088.484-3.265.604-5.442.604-7.618 0-12.938-3.385-17.775-9.674-5.32-7.011-14.147-21.764-16.565-25.512-1.573-2.057-2.782-3.144-4.355-3.387-1.086-.241-2.538-.482-5.077-.362-.484.121-.967.605-1.089 1.209-.24 1.452-.24 15.477-.12 20.072 0 6.409.484 10.4.966 11.488.363 1.45 1.332 2.781 5.564 3.506 1.329.242 1.812.606 1.812 1.09 0 .482-.965.846-2.296.846-2.178 0-5.804-.605-10.278-.605-4.353 0-8.705.605-11.004.605-1.209 0-2.055-.243-2.055-.846 0-.484.725-.848 2.298-1.09 3.99-.846 5.199-1.934 5.562-6.892.362-6.893.603-16.565.603-31.68 0-16.808-.482-24.425-.725-28.536-.241-3.387-.362-5.199-5.44-6.047-1.09-.242-2.056-.484-2.056-1.087 0-.483.725-.727 2.176-.727 1.692 0 5.199.364 9.432.364 5.079 0 8.344-.604 14.63-.604 7.376 0 12.213 1.449 16.203 4.352Zm-92.259-4.112c2.177 0 5.442-.12 8.706-.241 3.144-.121 9.674-.847 12.697-.847 9.431 0 17.29 2.54 22.006 7.738 4.475 4.596 6.169 10.643 6.169 15.72 0 11.003-5.443 16.445-9.917 19.347-4.352 3.144-10.157 3.869-13.181 3.869-1.45 0-3.022-.241-3.746-.482-.727-.243-1.453-.605-1.453-1.09 0-.241.363-.604 1.331-.484.966.121 1.33.121 2.298.121 3.988 0 15.114-3.386 15.114-20.435 0-4.353-1.209-11.123-5.683-15.96-3.748-4.473-7.861-6.409-13.301-6.409-1.935 0-4.473.363-5.32.725-.484.121-.968.968-.968 2.056v40.629c0 12.938.363 20.798.606 24.182.241 4.717 1.813 5.926 5.44 6.41 1.814.362 2.418.604 2.418 1.21 0 .603-.846.846-2.056.846-3.022 0-6.529-.606-12.212-.606-3.627 0-7.376.485-8.826.485-.848 0-2.056-.243-2.056-.725 0-.485.484-.848 2.056-1.09 3.626-.725 4.957-1.572 5.199-5.562.242-2.78.362-16.324.362-35.187 0-11.729-.482-25.514-.847-28.293-.119-2.299-1.449-3.629-4.956-3.991-.606-.122-1.936-.364-1.936-1.089 0-.363.968-.847 2.056-.847Zm126.115 9.191c-6.046 7.255-8.586 18.136-8.586 27.931 0 9.311 3.628 19.71 9.31 26.844 7.135 9.431 13.785 12.213 20.555 12.213 4.353 0 8.949-1.33 12.939-4.837 5.683-4.474 13.18-14.994 13.18-32.043 0-10.519-1.935-20.92-8.705-29.262-4.352-5.2-12.455-9.916-22.128-9.916-6.894 0-12.817 4.716-16.565 9.07Zm-58.401-6.529c-.243.121-.605.241-.727 2.296-.12 2.299-.24 27.569-.24 29.625 0 1.573.484 2.055.967 2.055.603.243 2.056.243 2.901.243 3.144-.121 10.158-.969 12.817-2.661 3.387-2.418 6.77-7.134 6.77-13.663 0-6.167-1.69-10.762-4.836-13.906-3.505-3.386-7.738-4.837-13.783-4.837-1.572 0-3.266.364-3.869.848Z"/>
</svg>
